<svg width="32" height="32" viewBox="0 0 32 32" fill="none" xmlns="http://www.w3.org/2000/svg">
<rect x="0.5" y="0.5" width="31" height="31" rx="6.5" fill="white" stroke="#F8F8F8"/>
<path d="M21.1489 11.3561L21.1483 11.3556C20.8094 11.0259 20.4096 10.7637 19.9704 10.5834L19.9695 10.583C19.5137 10.3952 19.0247 10.299 18.5309 10.3001L18.5293 10.3001C17.8345 10.3001 17.1582 10.4888 16.5716 10.844L16.5715 10.844C16.4312 10.9289 16.2984 11.0219 16.1729 11.1229L15.734 11.4761L15.2951 11.1229C15.1697 11.0219 15.0369 10.9289 14.8965 10.844L14.8965 10.844C14.3098 10.4888 13.6335 10.3001 12.9387 10.3001C12.4372 10.3001 11.9545 10.3951 11.4986 10.583L11.4978 10.5833C11.0569 10.7645 10.6605 11.0244 10.3195 11.3558L10.3186 11.3567L10.3186 11.3567C9.98099 11.6835 9.71161 12.0726 9.52544 12.5017L21.1489 11.3561ZM21.1489 11.3561C21.4863 11.6836 21.7559 12.0729 21.9428 12.5022C22.1364 12.9487 22.2346 13.4204 22.2332 13.9065V13.9085C22.2332 14.3627 22.1397 14.8513 21.9416 15.3653L21.941 15.3669M21.1489 11.3561L21.941 15.3669M12.3798 19.1132L12.3798 19.1133C13.1289 19.7997 13.8772 20.3824 14.4474 20.7989C14.7319 21.0067 14.9707 21.1722 15.1414 21.2875C15.2267 21.3451 15.2947 21.39 15.3427 21.4213C15.3935 21.4544 15.4169 21.4691 15.4154 21.4682L15.4265 21.4749L15.4264 21.475L15.7332 21.6702L16.04 21.475L16.0401 21.4749C16.0913 21.4424 17.5821 20.4903 19.0866 19.1132H12.3798ZM12.3798 19.1132C11.4752 18.2846 10.7632 17.482 10.2549 16.73M12.3798 19.1132L10.2549 16.73M21.941 15.3669C21.777 15.7955 21.5326 16.2543 21.2112 16.7304M21.941 15.3669L21.2112 16.7304M10.2549 16.73C9.93455 16.2555 9.69112 15.7962 9.52474 15.3653L10.2549 16.73ZM21.2112 16.7304C20.703 17.4822 19.9912 18.2846 19.0868 19.113L21.2112 16.7304ZM9.2332 13.9085C9.2332 13.4209 9.33172 12.9484 9.52542 12.5018L9.5246 15.3649C9.3266 14.8511 9.2332 14.3626 9.2332 13.9085Z" stroke="#ECECEC" stroke-width="1.4"/>
</svg>
