<svg width="196" height="41" viewBox="0 0 196 41" fill="none" xmlns="http://www.w3.org/2000/svg">
<g clip-path="url(#clip0_2_1384)">
<path d="M194.874 4.96942C196.413 3.80714 196.375 1.95848 194.786 0.832812C193.197 -0.292857 190.67 -0.265402 189.131 0.896875L169.713 15.5397L163.971 19.8594V2.92857C163.971 1.30871 162.182 0 159.967 0C157.753 0 155.963 1.30871 155.963 2.92857V38.0714C155.963 39.6913 157.753 41 159.967 41C162.182 41 163.971 39.6913 163.971 38.0714V28.279L172.066 22.1748L188.706 39.7462C189.969 41.0732 192.459 41.4027 194.273 40.4875C196.087 39.5723 196.538 37.742 195.287 36.415L177.746 17.8826L194.874 4.96942Z" fill="black"/>
</g>
<g clip-path="url(#clip1_2_1384)">
<path d="M106.574 0.176681C108.163 -0.250983 109.94 0.111601 111.016 1.0692L143.971 30.4572V2.97509C143.971 1.32952 145.76 3.68161e-05 147.974 3.68161e-05C150.189 3.68161e-05 151.978 1.32952 151.978 2.97509V38.6758C151.978 39.9309 150.927 41.0465 149.338 41.4742C147.749 41.9019 145.972 41.5393 144.896 40.5817L111.941 11.1937V38.6758C111.941 40.3214 110.152 41.6508 107.938 41.6508C105.723 41.6508 103.934 40.3214 103.934 38.6758V2.97509C103.934 1.71999 104.985 0.604345 106.574 0.176681Z" fill="black"/>
</g>
<g clip-path="url(#clip2_2_1384)">
<path fill-rule="evenodd" clip-rule="evenodd" d="M65.1536 0C66.1789 0 67.1623 0.308546 67.8873 0.857759C68.6123 1.40697 69.0196 2.15187 69.0196 2.92857V26.3571C69.0196 28.6873 70.2416 30.9219 72.4166 32.5696C74.5917 34.2172 77.5417 35.1429 80.6177 35.1429C83.6937 35.1429 86.6437 34.2172 88.8188 32.5696C90.9938 30.9219 92.2157 28.6873 92.2157 26.3571V2.92857C92.2157 2.15187 92.6231 1.40697 93.3481 0.857759C94.0731 0.308546 95.0564 0 96.0818 0C97.1071 0 98.0904 0.308546 98.8155 0.857759C99.5405 1.40697 99.9478 2.15187 99.9478 2.92857V26.3571C99.9478 34.4444 91.2937 41 80.6177 41C69.9417 41 61.2876 34.4444 61.2876 26.3571V2.92857C61.2876 2.15187 61.6949 1.40697 62.4199 0.857759C63.1449 0.308546 64.1283 0 65.1536 0Z" fill="black"/>
</g>
<g clip-path="url(#clip3_2_1384)">
<path d="M57.3018 20.8582C57.3018 31.1915 48.8991 37.2394 38.7386 41.6015L38.4712 41.7163L19.0169 41.7163L19.0169 30.2578C14.6362 29.355 5.58556 27.3932 0.124718 27.3932V25.7818C0.422241 25.7818 0.713131 25.7843 1.00052 25.7881V23.7914L0.064167 23.7552L0.185276 22.1462L1.00052 22.1776V19.569L0.187778 19.6017L0.0616646 17.9928L1.00052 17.955L1.00052 15.9283C0.712757 15.9321 0.421989 15.9347 0.124718 15.9347V14.3234C5.53777 14.3234 14.7004 12.5342 19.0169 11.6437L19.0169 0.115005L38.4711 0.000152588L38.7389 0.115005C48.8991 4.47703 57.3018 10.525 57.3018 20.8582ZM52.1748 20.8582C52.1748 11.2253 44.4219 6.44397 38.4711 4.02694L22.8767 4.02694L22.8767 11.6437C23.7754 11.4598 18.1135 11.8154 19.0169 11.6437V9.39972L22.8767 9.39972V11.5934L39.2854 11.4587L39.2854 30.2578L23.1446 30.2578V32.3167H19.0169V30.2578C18.1169 30.0911 24.1657 28.8265 23.2708 28.6464L23.1446 37.5225L39.2854 37.5225C45.7366 34.5937 52.1748 30.4912 52.1748 20.8582ZM37.0333 28.6464L37.0333 13.07L23.2708 13.07L23.2708 28.6464L37.0333 28.6464ZM19.0169 28.4128L19.0169 24.4862L15.2635 24.3414V27.664C16.4399 27.9066 17.6751 28.1589 19.0169 28.4128ZM19.0169 22.8726V18.8458L15.2635 18.9965V22.7278L19.0169 22.8726ZM19.0169 17.2318V13.3105C17.687 13.5683 16.4508 13.8252 15.2635 14.072V17.3825L19.0169 17.2318ZM13.0114 27.2022V24.2545L9.25803 24.1097V26.5049C10.5117 26.7081 11.7428 26.9455 13.0114 27.2022ZM13.0114 22.6409V19.087L9.25803 19.2376V22.4961L13.0114 22.6409ZM13.0114 17.473V14.5345C11.7522 14.7878 10.5192 15.0217 9.25803 15.2223V17.6235L13.0114 17.473ZM7.00599 26.1839V24.0229L3.25257 23.8781V25.8601C4.5104 25.9237 5.76306 26.0318 7.00599 26.1839ZM7.00599 22.4092V19.3278L3.25257 19.4786V22.2644L7.00599 22.4092ZM7.00599 17.7139L7.00599 15.5377C5.76269 15.6869 4.51011 15.7934 3.25257 15.8567L3.25257 17.8646L7.00599 17.7138V17.7139Z" fill="black"/>
</g>
<defs>
<clipPath id="clip0_2_1384">
<rect width="40.0364" height="41" fill="white" transform="translate(155.963)"/>
</clipPath>
<clipPath id="clip1_2_1384">
<rect width="48.0437" height="41" fill="white" transform="translate(103.934)"/>
</clipPath>
<clipPath id="clip2_2_1384">
<rect width="38.6602" height="41" fill="white" transform="translate(61.2876)"/>
</clipPath>
<clipPath id="clip3_2_1384">
<rect width="41" height="57.3021" fill="white" transform="translate(57.3018) rotate(90)"/>
</clipPath>
</defs>
</svg>
